<svg xmlns="http://www.w3.org/2000/svg" xmlns:xlink="http://www.w3.org/1999/xlink" viewBox="0 0 782.78 370.5"><defs><style>.a{fill:none;}.b{clip-path:url(#a);}.c{opacity:0;}.d{fill:#fff;}.e{fill:#fa5856;}.f{fill:#fef414;}.g{fill:#89bf54;}.h{fill:#9156b0;}.i{fill:#29aed4;}</style><clipPath id="a" transform="translate(-568.34 -237)"><rect class="a" x="774.75" y="237" width="370.5" height="370.5"/></clipPath></defs><title>404</title><path d="M696.34,404.73h65.6v167.6h-65.6v-46.8h-128v-65.2h.8l-.4-.4,93.2-182h73.83l-93.83,182h54.4Z" transform="translate(-568.34 -237)"/><path d="M1285.52,404.73h65.6v167.6h-65.6v-46.8h-128v-65.2h.8l-.4-.4,93.2-182H1325l-93.83,182h54.4Z" transform="translate(-568.34 -237)"/><g class="b"><g class="b"><g class="b"><g class="c"><g class="b"><rect class="d" x="206.41" width="370.5" height="370.5"/></g></g><path d="M1098.13,439.75c-24-8-36.16-10.87-43.27-14.85h0c-9.34,8.37-17,14.82-21.22,18.07l0,0-11.21,12.86c1,6.47-.78,14.12-5.51,24.31-6.27,13.47-28.79,21.19-45.18,25.83l-.41.12-.21.06a29.51,29.51,0,0,1,6.31,18.93,30.35,30.35,0,0,1-.43,4.5c0,.25-.09.5-.14.76s-.1.47-.16.71c-3.79,16.77-22,28-45.34,27.52-26-.54-45-15.43-44.57-35.44a31.29,31.29,0,0,1,.65-5.62c.1-.49.22-1,.35-1.46,4.34-16.15,22.26-26.89,45.08-26.42,1.82,0,3.61.15,5.36.33l.2-.24q1.71-2,3.22-4l.94-1.23c.72-1,1.42-2,2.08-2.92.32-.45.62-.91.92-1.37s.6-.9.88-1.35q1.35-2.1,2.5-4.14c.46-.8.89-1.59,1.32-2.38,0-.06.07-.12.1-.19.37-.71.74-1.41,1.09-2.1,1.08-2.17,2-4.26,2.87-6.25l.9-2.22c.17-.43.34-.86.5-1.29.24-.63.47-1.24.69-1.85,0,0,0,0,0,0,.23-.63.45-1.26.67-1.87.33-1,.64-1.87.92-2.73.1-.28.19-.57.28-.84s.17-.54.26-.79c1.32-4,2.19-6.71,3.68-8.89l.44-.66c3.29-4.88,9.41-14,24.71-14a45.36,45.36,0,0,1,4.55.25L1003.21,416l.06-.06,2.81-3.95c7.66-10.73,23.59-33.06,41.11-55,10.18-12.75,19.26-23.35,27.35-31.9-2.07-15.53-14-56.19-80.94-60.94-73.24-5.19-141,19.08-185.58,76-18.72,23.9-38.24,74-21.74,121.18,38.41,109.74,145.79,134.29,241.38,114.33,130.24-27.21,123.91-118,70.47-136M968.83,301.41a16,16,0,0,1,.26-1.82c2.44-12.16,18.63-22,37.46-20.42,19.76,1.67,34.93,15.29,33.84,28.27a16.36,16.36,0,0,1-.24,1.71l-.06.31c-2.55,12.24-18.62,23.56-37.35,22-19.76-1.66-35-17.05-33.91-30m-94.19,18.38c0-.16.06-.32.1-.48,2.86-12.76,15.35-23.94,32-27.17,21-4.06,40.57,6.09,43.79,22.68a25.14,25.14,0,0,1,0,9.47c0,.17-.06.33-.1.48-2.6,12.35-14.53,22.45-31.19,25.68-21,4.07-41.44-4.32-44.66-20.9a24.85,24.85,0,0,1,.07-9.76m-69.73,69.63a24.9,24.9,0,0,1,.09-9.92,4.48,4.48,0,0,1,.11-.5c3-13.14,16.16-24.74,33.61-28.11,22-4.27,42.47,6.07,45.77,23.09a24.92,24.92,0,0,1,0,9.66c0,.16-.07.33-.11.5-2.89,13.26-16.1,25-33.67,28.38-22,4.26-42.46-6.09-45.76-23.1m9.88,81.08a28,28,0,0,1,0-11c2.94-14.36,17.09-26.34,36.71-30.14,24.46-4.75,48.14,5,51.81,23.94a26.11,26.11,0,0,1,.06,9.69l-.12.6c-3,14.67-18.52,27-38.45,30.83-24.45,4.73-46.38-5-50.05-23.94m291.34,25.12c-1.26,18.83-19.6,32.94-41,31.51s-37.65-17.86-36.38-36.69,19.59-32.94,40.94-31.51,37.65,17.85,36.4,36.69" transform="translate(-568.34 -237)"/><path class="e" d="M884.55,373.72c3.3,17-11.84,34.27-33.82,38.54s-42.47-6.08-45.77-23.1,11.84-34.27,33.82-38.54,42.47,6.08,45.77,23.1" transform="translate(-568.34 -237)"/><path class="f" d="M903.41,453.06c3.67,18.94-14.06,36.37-38.52,41.11s-46.37-5-50-23.94,12.3-36.37,36.75-41.11,48.15,5,51.82,23.94" transform="translate(-568.34 -237)"/><path class="g" d="M950.54,314.56c3.21,16.59-10.29,31.57-31.25,35.64s-41.45-4.33-44.67-20.92,11.17-33.33,32.14-37.4,40.56,6.09,43.78,22.68" transform="translate(-568.34 -237)"/><path class="h" d="M1040.44,307.18c-1.09,13-17.89,25.67-37.65,24s-35-17.06-33.91-30,18-23.91,37.72-22.24,34.93,15.29,33.84,28.27" transform="translate(-568.34 -237)"/><path class="i" d="M977.44,524.49a28.76,28.76,0,0,1-.48,4.76c0,.25-.09.5-.14.75s-.1.48-.16.72c-3.93,16.62-22.07,27.74-45.28,27.27-26-.55-45-15.44-44.57-35.45a30.33,30.33,0,0,1,.59-5.36c.1-.5.22-1,.35-1.46,4.2-16.3,22.19-27.15,45.13-26.67,1.88,0,3.71.15,5.51.34l-.2.24a108.65,108.65,0,0,1-8.16,8.51l-21.12,19.74,28.54-4.58c.67-.12,16.41-2.67,33.63-7.48l.21-.07a29.53,29.53,0,0,1,6.15,18.74" transform="translate(-568.34 -237)"/><path d="M1013.8,460.39a.41.41,0,0,1,0,.11,2.53,2.53,0,0,1,0,.38c0,.05,0,.1,0,.15s0,.4-.06.61,0,.28-.05.43,0,.36-.08.55c0,.38-.12.76-.21,1.17-.05.23-.09.47-.15.71s-.09.38-.13.58-.13.52-.21.79-.18.7-.3,1.06-.19.65-.3,1-.21.67-.33,1-.21.6-.32.92c-.18.48-.36,1-.56,1.47l-.44,1.1q-.76,1.89-1.74,4c-.12.25-.24.5-.38.74s-.29.49-.44.74-.32.47-.49.71a0,0,0,0,0,0,0c-.17.24-.36.48-.55.71l-.61.71-.66.7c-.46.46-1,.91-1.49,1.36l-.45.38c-.16.14-.34.28-.52.41l-.45.34c-.82.64-1.71,1.25-2.65,1.85l-.52.32q-1.18.75-2.46,1.44c-.21.13-.42.24-.63.35l-.64.34-1.32.67c-.67.34-1.35.66-2,1-.47.21-.94.43-1.41.63-2.14,1-4.38,1.87-6.7,2.74-1,.36-2,.72-2.94,1.07l-.26.09-1.34.46-2,.68c-.51.17-1,.34-1.55.49l-1.39.45-1.62.49c-1.07.33-2.16.64-3.22,1l-2.41.68c-1.26.35-2.52.68-3.75,1l-.32.08-.68.17-1.55.4-2.41.59-1.37.34c-3.47.83-6.72,1.53-9.59,2.13l-1.19.25c-1.65.34-3.15.63-4.49.89l-.69.13-2.23.41-.59.11-1.19.21-.24,0-1.35.23c.59-.55,1.16-1.1,1.72-1.65q1.69-1.65,3.26-3.3c.5-.52,1-1,1.46-1.56a1.54,1.54,0,0,0,.17-.19c.48-.52.94-1,1.38-1.54l.1-.11,1.31-1.53c.47-.55.92-1.09,1.35-1.63s.85-1.05,1.25-1.57l.05-.06c.06-.08.12-.15.17-.23.35-.44.69-.89,1-1.34s.67-.89,1-1.33.47-.64.69-1q1.71-2.4,3.18-4.73l.58-.93c.6-1,1.17-1.94,1.72-2.89.24-.41.47-.82.69-1.22s.45-.8.66-1.2.43-.79.63-1.19.56-1.06.82-1.57c.58-1.16,1.12-2.29,1.63-3.39.38-.82.74-1.63,1.08-2.44.12-.26.23-.53.34-.78q.33-.78.63-1.53l.37-.91c.28-.71.54-1.41.8-2.08.1-.25.18-.48.26-.71q.27-.7.51-1.38l.23-.67c.14-.36.26-.72.38-1.07a2.25,2.25,0,0,0,.08-.24c.15-.42.29-.83.43-1.24.27-.8.52-1.57.75-2.29.19-.56.36-1.09.52-1.59l.4-1.19c.08-.23.16-.46.23-.68l.13-.36c.06-.15.1-.3.15-.44a14.67,14.67,0,0,1,1.34-3c.3-.42.59-.86.9-1.31q.14-.22.3-.45c.52-.76,1.09-1.55,1.71-2.31l.69-.82a.14.14,0,0,0,.06-.07c.23-.24.45-.48.69-.72l.15-.15c.21-.21.44-.41.66-.62l.44-.37.62-.5a15.82,15.82,0,0,1,3.91-2.14l.67-.24.5-.16.41-.13a20.54,20.54,0,0,1,2.29-.47l.83-.12.8-.08.54,0h.14l.26,0h2.37l.72,0c.36,0,.73,0,1.12.08s.54,0,.81.08l.86.09.57.08.76.12c.31,0,.62.1.94.16h0l18.7,16.31a1,1,0,0,1,0,.1c.09.22.16.45.24.68l.06.22c.07.23.13.47.19.72s.07.31.1.47a12.33,12.33,0,0,1,.18,1.28c0,.13,0,.26,0,.4a3,3,0,0,1,0,.42c0,.53,0,1.08,0,1.66" transform="translate(-568.34 -237)"/><path d="M1129.83,328.85q-.27.56-.57,1.11c-.39.75-.8,1.52-1.25,2.3-.21.38-.43.76-.66,1.15q-1.44,2.41-3.19,5l-.89,1.3c-.67,1-1.38,2-2.12,3-.57.78-1.16,1.59-1.77,2.39l-2.37,3.1-2,2.53q-2.9,3.6-6.11,7.33l-1.29,1.5c-3.91,4.5-8.11,9.12-12.47,13.74-.48.51-1,1-1.45,1.54l-1.11,1.15c-.31.34-.63.67-1,1-1,1-2,2-2.95,3.06l-3,3-1.79,1.8c-.39.41-.81.83-1.22,1.23s-.66.68-1,1c-1.68,1.68-3.35,3.34-5,5-.67.67-1.34,1.32-2,2-7.76,7.57-15.43,14.74-22.37,21l-1.61,1.45-2.38,2.13c-1.79,1.61-3.53,3.14-5.18,4.58l-2.17,1.88-.85.73-.8.7-1.66,1.4c-.27.23-.53.46-.79.67-.77.66-1.52,1.28-2.25,1.88l-.76.63c-.74.62-1.45,1.2-2.12,1.74l-18.46-16.09.73-1c.21-.3.43-.61.66-.92s.49-.7.76-1.06c1.77-2.49,3.85-5.39,6.17-8.6.23-.32.46-.65.71-1l3-4.09,2.37-3.23c2.34-3.21,4.85-6.59,7.48-10.11l1.55-2.08,1.58-2.1,1.75-2.31,1.16-1.52,2-2.59.83-1.08,1.87-2.42c2.24-2.89,4.52-5.82,6.84-8.74.85-1.07,1.7-2.15,2.57-3.21,1.06-1.34,2.13-2.66,3.21-4q.86-1.06,1.74-2.13,1.86-2.26,3.75-4.52c.62-.75,1.25-1.49,1.87-2.23l1.88-2.22c1.19-1.39,2.39-2.78,3.59-4.14.51-.59,1-1.18,1.54-1.76l0,0c2.76-3.12,5.49-6.12,8.19-9,.29-.31.58-.62.88-.92,1.44-1.51,2.88-3,4.3-4.41l.85-.84c.84-.84,1.68-1.65,2.52-2.45.52-.5,1-1,1.54-1.46a105.38,105.38,0,0,1,11.72-9.65l.71-.49.71-.47c5.67-3.67,12.3-6.1,16.58-2.25l5.68,5.11c4.28,3.86,7.1,8.26,3.36,15.89" transform="translate(-568.34 -237)"/><polygon points="460.42 197.94 446.46 213.97 429.14 198.91 431.9 195.73 434.67 192.55 443.11 182.87 460.42 197.94"/></g></g></g></svg>