<svg height="525" viewBox="0 0 562 525" width="562" xmlns="http://www.w3.org/2000/svg"><g fill-rule="evenodd" transform="matrix(1 0 0 -1 .7 524.611111)"><path d="m359.388529 522.962129c-9.624749-3.169938-17.424115-10.596975-134.014048-128.279474-66.640803-67.249594-143.392743-144.604079-170.6819401-172.137904-46.53869574-46.902486-49.70879748-50.432904-52.26662325-57.259141-3.53060067-9.504091-3.04421322-22.904801 1.21882973-31.064243 3.41043436-6.580195 124.87568662-130.47096465 130.11150462-132.66245572 2.437659-.9727245 48.976355-1.33892666 174.092374-1.09860649l170.68194.36620216 3.170102 2.9238954c5.848093 5.60174871 5.235818 14.98567915-1.338996 19.24850115-3.044214 2.071331-9.62475 2.1914911-103.920971 2.8037354l-100.630703.6065223 139.009534 140.4614168c96.247493 97.095071 139.862142 142.046386 141.687526 145.702686 6.088426 11.941624 5.727927 24.976132-.732443 36.305511-2.071438 3.6563-32.404848 35.206905-83.572808 86.858576-62.618093 63.347252-81.627259 81.863349-86.496856 84.300882-6.580536 3.410258-20.348162 4.869345-26.316422 2.923896zm93.563779-103.309064c43.128262-43.366346 79.429932-80.524422 80.648762-82.595753 1.338996-1.951171 2.437659-4.629024 2.437659-5.847791 0-1.825289-.732442-1.584969-3.776655 1.459087-2.924047 2.923895-4.749431 3.77646-8.651975 3.77646-13.035183 0-16.691673-18.149895-4.509097-23.271004l3.776655-1.459086-11.93652-11.935902-11.942243-11.935902-1.459162 3.290098c-2.317493 5.361428-5.96826 7.919122-11.696188 7.919122-4.142876 0-5.727927-.732405-8.526086-3.89662-4.509097-4.995227-4.509097-10.722857-.246054-15.838244 1.705217-2.071331 4.142876-3.77646 5.481872-3.77646 1.21883 0 2.317493-.366202 2.317493-.972724 0-.486362-5.361706-6.334153-12.062408-12.914348l-11.936521-11.935902-.732442 3.77646c-1.098663 5.115386-7.307256 9.017728-12.915017 8.165164-4.875319-.732405-9.378695-4.629025-10.477358-8.891847-1.585051-6.334153 4.02271-14.985679 9.744915-14.985679.972775 0 1.825384-.366202 1.825384-.972724 0-.486363-5.361706-6.213993-11.93652-12.794188l-11.936521-11.941624-2.071438 4.749184c-5.361706 12.302104-22.780099 8.771686-22.780099-4.629024 0-4.022502.732442-5.847791 3.5306-8.651526 1.951272-1.951171 4.875319-3.530418 6.454648-3.530418 2.191605 0 .486387-2.311651-9.990971-12.788466l-12.794851-12.788466-.972774 3.530418c-1.464885 5.72763-6.454648 8.891846-13.161073 8.405484-5.361706-.366203-5.848094-.12016-15.472843 8.525644l-9.744916 8.891846.606554 6.580195c.606554 6.088111.486388 6.820515-3.044213 10.230773-2.803881 2.923895-4.74943 3.77646-8.40592 3.77646-2.677992 0-5.361706-.606522-6.094148-1.338927-1.098664-1.092884-3.170102.12016-8.526086 4.749184-11.329967 9.744411-14.37418 13.280551-12.915018 15.10584 4.022711 5.115386 1.705218 14.133114-4.388931 17.29733-4.509098 2.437533-7.066924 2.437533-11.576021.12016-3.170102-1.705129-3.65649-1.584969-6.700703.486362-1.705217 1.338927-6.334481 5.601749-10.231303 9.624251-6.094148 6.213993-6.820869 7.306877-5.24154 8.651526 1.098664.852564 2.191605 3.410258 2.677992 5.601749 2.071439 11.209219-11.816354 19.128341-20.222273 11.329379l-2.557826-2.437533-9.361528 8.897568c-5.115652 4.875067-9.870804 9.258049-10.357192 9.744411-.606553.366202.366222 2.311651 2.071439 4.142662 10.597524 11.449539-6.580536 27.653985-17.544282 16.690808l-3.410434-3.410258-4.142877 3.77646-4.142876 3.89662 79.796153 80.644583 79.922041 80.644582h5.481873 5.481873zm-178.481306-182.002475c48.36408-45.077197 88.68846-82.469871 89.541069-83.328158 1.338996-1.218766-10.843579-14.007232-61.279097-64.9322206l-62.978591-63.5875725h-48.123747-48.123746l-57.3822753 57.9858237c-31.6724064 31.7966474-58.4752161 59.8168344-59.6940458 62.1284854-1.5850509 2.803736-2.0714383 5.235547-1.4648845 7.919122.7324422 2.923896 19.1293323 22.292557 80.8948166 84.667085 43.98087 44.464953 80.042208 80.770464 80.288262 80.890624.120167 0 39.95816-36.791873 88.322239-81.743189z" fill-rule="nonzero"/><g transform="translate(247.666667 235)"><path d="m115.601466 244.978431c-8.580819-8.700893-.238356-23.202381 11.599997-20.182893 3.989627.964874 7.610369 4.591665 8.580819 8.581702 3.019177 11.839572-11.480818 20.177218-20.180816 11.601191z"/><path d="m83.1076692 210.531136c-8.3703916-2.17135-11.2029136-13.396606-5.0465137-19.79727 3.3238778-3.497971 7.7518612-4.586481 12.7983749-2.897023 8.1218233 2.653242 10.5843836 12.432821 4.9251199 19.071596-3.4510523 4.110258-6.896324 5.074043-12.6769811 3.622697z"/><path d="m158.755838 211.028709c-3.399296-.481053-8.498241-5.540595-9.108517-9.156979-1.095076-5.302898 1.699648-10.843493 6.678819-13.254416 4.129346-1.92987 5.098944-2.048718 9.108517-.481053 6.19402 2.286415 9.473543 8.794775 7.528644 14.697574-.730051 2.286415-2.064674 4.697338-3.034272 5.540595-2.184447 1.811022-7.893668 3.254179-11.173191 2.654279z"/><path d="m44.2821488 172.952137c-2.5549133-1.109353-4.623993-3.322281-5.8414349-6.153442-5.1098267-12.422442 9.9795944-22.880405 19.3476099-13.41046 6.2072392 6.153442 4.3782184 16.362956-3.2865216 19.558124-5.1098267 2.218706-5.1098267 2.218706-10.2196534.005778z"/><path d="m118.609445 172.481342c-12.835878-6.575968-5.084304-26.052271 8.837818-22.278237 8.598958 2.310166 11.624517 12.540086 5.567711 19.236137-4.111803 4.500249-9.315537 5.59815-14.405529 3.0421z"/><path d="m193.791582 172.408963c-2.846844-1.454327-4.822206-3.644373-5.937704-6.678499-1.609338-4.00938-1.48733-4.978932.493841-9.108081 3.834524-7.64805 13.362737-9.227849 19.544456-3.279365 9.900045 9.838096-1.603529 25.259669-14.100593 19.065945z"/><path d="m6.02587389 134.743208c-10.58344255-5.712707-6.08605093-22.354319 5.96032971-22.354319 11.6806461.119847 16.5437722 13.611195 7.5432744 21.144435-4.1316571 3.521219-8.6347634 3.886467-13.50360411 1.209884z"/><path d="m81.2241199 135.324412c-2.9975542-1.578812-6.4796755-7.278495-6.4796755-10.800899 0-6.554635 5.6401349-12.014931 12.3564594-12.134624 12.1141758 0 16.3118782 16.865361 5.6401349 22.45105-3.9554193 2.057585-7.7981486 2.182978-11.5169188.484473z"/><path d="m153.987528 134.177319c-6.180993-4.876473-6.061471-14.377582.119521-19.37425 8.480367-6.702289 21.445653 1.585426 19.146278 12.185459-1.815595 8.281991-12.72055 12.425849-19.265799 7.188791z"/><path d="m230.157612 134.880925c-1.567995-.843354-3.617144-2.892307-4.460578-4.460153-6.747474-12.169198 9.158903-24.219535 18.917833-14.461536 9.764591 9.76366-2.286896 25.668519-14.457255 18.921689z"/><path d="m41.1842005 96.0765411c-3.7688175-3.955593-4.7395735-8.782462-2.7980615-13.6035226 2.3126835-5.3147835 5.2306618-7.4174629 11.0666186-7.4174629 5.8359567 0 8.7539351 2.1026794 11.0609082 7.4174629 3.4033564 8.288739-2.1870562 16.6936482-11.0609082 16.6936482-3.8887344 0-5.8359568-.7434889-8.2685571-3.0901256z"/><path d="m115.764185 94.8722433c-11.047788-11.1653872 5.168423-27.9106183 16.695813-17.1100013 7.809059 7.4036948 2.522145 20.6266138-8.170172 20.6266138-3.960953.0056996-5.760873-.7238408-8.525641-3.5166125z"/><path d="m191.452229 96.9972702c-8.250784-6.464925-5.094061-19.7673106 5.094062-21.7216896 11.766484-2.1950942 19.287917 12.5687772 10.433139 20.5009192-4.48437 4.0233842-11.276452 4.5105462-15.527201 1.2207704z"/><path d="m81.7478899 60.2930239c-9.8959219-5.0586752-9.1704476-17.8298497 1.3262576-21.8020981 11.4658935-4.3400491 21.1181015 10.7228071 12.4294139 19.5160748-1.8080178 1.6862251-3.8597496 3.1347943-4.8289378 3.1347943-.8444973 0-2.1707549.2433144-3.1342754.5997982-.8444973.3564838-3.4970125-.3678008-5.7924583-1.4485692z"/><path d="m158.764875 61.5918282c-1.456242-.2432481-3.998977-1.8045615-5.568987-3.4903273-4.966013-4.9385021-5.08547-11.6815656-.119458-16.5012721 3.998977-4.0956191 8.111722-4.8197065 13.20288-2.7718969 13.316649 5.5381369 6.774938 25.4109407-7.514435 22.7634963z"/><path d="m118.743097 23.4608107c-4.240532-2.4294482-6.665319-6.432905-6.665319-11.1720399 0-12.26129947 16.842594-16.51568525 22.420743-5.7086329 2.663851 5.2181809 2.180032 9.2273407-1.457149 13.3562621-3.756712 4.1346242-10.422031 5.8340973-14.298275 3.5244107z"/></g></g></svg>