<svg xmlns="http://www.w3.org/2000/svg" viewBox="0 0 560.78 523.44"><defs><style>.a,.b{fill:#fff;}.b{fill-rule:evenodd;}</style></defs><path class="a" d="M360.09,1.65c-9.63,3.17-17.43,10.6-134,128.28C159.43,197.18,82.68,274.53,55.39,302.07,8.85,349,5.68,352.5,3.13,359.33c-3.53,9.5-3,22.9,1.21,31.06C7.76,397,129.22,520.86,134.46,523.05c2.43,1,49,1.34,174.09,1.1l170.68-.37,3.17-2.92c5.85-5.6,5.24-15-1.34-19.25-3-2.07-9.62-2.19-103.92-2.8l-100.63-.61,139-140.46c96.25-97.09,139.86-142,141.69-145.7a37.36,37.36,0,0,0-.74-36.31c-2.07-3.65-32.4-35.2-83.57-86.86C410.28,25.53,391.27,7,386.4,4.57c-6.58-3.41-20.34-4.87-26.31-2.92ZM453.65,105c43.13,43.36,79.43,80.52,80.65,82.59s2.44,4.63,2.44,5.85c0,1.83-.73,1.59-3.78-1.46s-4.75-3.77-8.65-3.77c-13,0-16.69,18.15-4.51,23.27l3.78,1.46-11.94,11.93L499.7,236.77l-1.46-3.29c-2.32-5.36-6-7.92-11.7-7.92-4.14,0-5.72.73-8.52,3.9-4.51,5-4.51,10.72-.25,15.83,1.71,2.07,4.14,3.78,5.48,3.78s2.32.37,2.32,1-5.36,6.34-12.06,12.92l-11.94,11.93-.73-3.77c-1.1-5.12-7.31-9-12.92-8.17-4.87.73-9.37,4.63-10.47,8.89-1.59,6.34,4,15,9.74,15,1,0,1.83.37,1.83,1s-5.36,6.22-11.94,12.8l-11.94,11.94-2.07-4.75c-5.36-12.3-22.78-8.77-22.78,4.63,0,4,.74,5.84,3.53,8.65,1.95,1.95,4.88,3.53,6.46,3.53,2.19,0,.48,2.31-10,12.79l-12.8,12.79-1-3.53c-1.47-5.73-6.46-8.9-13.16-8.41-5.36.37-5.85.12-15.47-8.53l-9.75-8.89.61-6.58c.6-6.09.48-6.82-3.05-10.23-2.8-2.92-4.75-3.77-8.4-3.77-2.68,0-5.36.6-6.1,1.33-1.1,1.1-3.17-.12-8.52-4.75-11.33-9.74-14.38-13.28-12.92-15.1,4-5.12,1.71-14.13-4.39-17.3-4.51-2.44-7.06-2.44-11.57-.12-3.17,1.71-3.66,1.59-6.7-.48-1.71-1.34-6.34-5.61-10.24-9.63-6.09-6.21-6.82-7.31-5.24-8.65,1.1-.85,2.19-3.41,2.68-5.6,2.07-11.21-11.82-19.13-20.22-11.33l-2.56,2.44-9.36-8.9c-5.12-4.88-9.87-9.26-10.36-9.75s.37-2.31,2.07-4.14c10.6-11.45-6.58-27.65-17.54-16.69L212.92,195l-4.14-3.78-4.15-3.89,79.8-80.65L364.35,26h11ZM275.17,287c48.37,45.08,88.69,82.47,89.54,83.33,1.34,1.22-10.84,14-61.28,64.93l-63,63.59H144.21l-57.39-58C55.15,409,28.35,381,27.13,378.69a10.51,10.51,0,0,1-1.46-7.92c.73-2.92,19.13-22.29,80.89-84.66,44-44.47,80-80.77,80.29-80.89s40,36.79,88.32,81.74Z" transform="translate(-0.78 -0.78)"/><path class="b" d="M364,44.63c-8.58,8.7-.24,23.21,11.6,20.19a12.31,12.31,0,0,0,8.58-8.59C387.17,44.39,372.67,36.06,364,44.63Z" transform="translate(-0.78 -0.78)"/><path class="b" d="M331.47,79.08c-8.37,2.17-11.2,13.4-5,19.8,3.32,3.5,7.75,4.58,12.8,2.89,8.12-2.65,10.58-12.43,4.92-19.07C340.7,78.59,337.25,77.63,331.47,79.08Z" transform="translate(-0.78 -0.78)"/><path class="b" d="M407.12,78.58c-3.4.48-8.5,5.54-9.11,9.16A12.18,12.18,0,0,0,404.69,101c4.13,1.93,5.1,2.05,9.11.48a11.88,11.88,0,0,0,7.53-14.69,14.56,14.56,0,0,0-3-5.54C416.11,79.43,410.4,78,407.12,78.58Z" transform="translate(-0.78 -0.78)"/><path class="b" d="M292.65,116.66a11.48,11.48,0,0,0-5.84,6.15c-5.11,12.42,10,22.88,19.34,13.41,6.21-6.15,4.38-16.36-3.28-19.56C297.76,114.45,297.76,114.45,292.65,116.66Z" transform="translate(-0.78 -0.78)"/><path class="b" d="M367,117.13c-12.84,6.58-5.09,26.05,8.83,22.28a11.61,11.61,0,0,0,5.57-19.24C377.27,115.67,372.07,114.57,367,117.13Z" transform="translate(-0.78 -0.78)"/><path class="b" d="M442.16,117.2a11.84,11.84,0,0,0-5.94,6.68c-1.61,4-1.49,5,.49,9.11a12.08,12.08,0,0,0,19.55,3.28c9.9-9.84-1.6-25.26-14.1-19.07Z" transform="translate(-0.78 -0.78)"/><path class="b" d="M254.39,154.87c-10.58,5.71-6.08,22.35,6,22.35,11.68-.12,16.55-13.61,7.55-21.14C263.76,152.56,259.26,152.19,254.39,154.87Z" transform="translate(-0.78 -0.78)"/><path class="b" d="M329.59,154.29c-3,1.58-6.48,7.28-6.48,10.8,0,6.55,5.64,12,12.36,12.13,12.11,0,16.31-16.86,5.64-22.45A12.52,12.52,0,0,0,329.59,154.29Z" transform="translate(-0.78 -0.78)"/><path class="b" d="M402.35,155.43a12.45,12.45,0,0,0,.12,19.38c8.48,6.7,21.45-1.59,19.15-12.19C419.8,154.34,408.9,150.2,402.35,155.43Z" transform="translate(-0.78 -0.78)"/><path class="b" d="M478.52,154.73a13.21,13.21,0,0,0-4.46,4.46c-6.74,12.17,9.16,24.22,18.92,14.46S490.69,148,478.52,154.73Z" transform="translate(-0.78 -0.78)"/><path class="b" d="M289.55,193.53c-3.77,4-4.74,8.79-2.8,13.61,2.32,5.31,5.23,7.42,11.07,7.42s8.75-2.11,11.06-7.42c3.4-8.29-2.19-16.7-11.06-16.7C293.93,190.44,292,191.19,289.55,193.53Z" transform="translate(-0.78 -0.78)"/><path class="b" d="M364.13,194.74c-11.05,11.16,5.17,27.91,16.7,17.11,7.81-7.4,2.52-20.63-8.17-20.63C368.7,191.22,366.9,192,364.13,194.74Z" transform="translate(-0.78 -0.78)"/><path class="b" d="M439.82,192.61c-8.25,6.47-5.1,19.77,5.09,21.73,11.77,2.19,19.29-12.57,10.44-20.51-4.49-4-11.28-4.51-15.53-1.22Z" transform="translate(-0.78 -0.78)"/><path class="b" d="M330.11,229.32c-9.89,5.06-9.17,17.83,1.33,21.8,11.47,4.34,21.12-10.72,12.43-19.52-1.81-1.68-3.86-3.13-4.83-3.13a10.27,10.27,0,0,1-3.13-.6C335.06,227.51,332.41,228.24,330.11,229.32Z" transform="translate(-0.78 -0.78)"/><path class="b" d="M407.13,228a12.46,12.46,0,0,0-5.57,3.49c-5,4.94-5.08,11.68-.12,16.5,4,4.1,8.11,4.82,13.21,2.77C428,245.24,421.42,225.37,407.13,228Z" transform="translate(-0.78 -0.78)"/><path class="b" d="M367.11,266.15a12.6,12.6,0,0,0-6.67,11.17c0,12.26,16.85,16.52,22.43,5.71,2.66-5.22,2.18-9.23-1.46-13.36S371,263.84,367.11,266.15Z" transform="translate(-0.78 -0.78)"/></svg>