<svg xmlns="http://www.w3.org/2000/svg" viewBox="0 0 470 470"><defs><style>.a{fill:#fff;}</style></defs><path class="a" d="M357.16,430.87V313.37H112.84v117.5Zm32.61,6.52h41.05l6.53-283.5c0-2.88-1-6.77-3.07-11.8s-4.08-8.54-6.14-10.55L335.67,41.82c-2.07-2.07-5.52-4.08-10.41-6.14s-8.87-3.07-11.94-3.07V166.42a29.33,29.33,0,0,1-29.4,29.4H107.72a29.31,29.31,0,0,1-29.4-29.4V32.61H34.47V437.35H80.18v-131a29.33,29.33,0,0,1,29.4-29.4l250.84,1.87a29.31,29.31,0,0,1,29.4,29.4V437.39ZM274.13,146.85V49c0-2.64-2-4.94-6-6.91a31.86,31.86,0,0,0-14.22-2.93H133a32.16,32.16,0,0,0-14.22,2.93c-4,1.92-6,4.22-6,6.91V146.9c0,2.64,2,4.94,6,6.91A32.39,32.39,0,0,0,133,156.73H254a32.3,32.3,0,0,0,14.22-2.92C272.16,151.84,274.13,149.54,274.13,146.85ZM470,440.65A29.23,29.23,0,0,1,440.65,470H29.35a28.39,28.39,0,0,1-20.81-8.58A28.24,28.24,0,0,1,0,440.65V29.35A28.39,28.39,0,0,1,8.58,8.54,28.43,28.43,0,0,1,29.35,0h284q12.23,0,26.9,6.14t23.26,14.67l85.71,85.66q8.55,8.57,14.67,23.26t6.14,27Z" transform="translate(0 0)"/></svg>