<svg height="470" viewBox="0 0 470 470" width="470" xmlns="http://www.w3.org/2000/svg"><path d="m357.162698 430.865306v-117.5h-244.325396v117.5zm32.606917 6.527778h41.047732l6.527778-283.50805c0-2.877551-1.007143-6.762245-3.069388-11.797959-2.062245-4.987755-4.076531-8.536735-6.138776-10.551021l-92.470634-89.7209746c-2.062245-2.0622449-5.515307-4.0765306-10.407143-6.1387755-4.891837-2.0142858-8.872449-3.0693878-11.941837-3.0693878v133.8114509c0 8.153062-2.877551 15.107143-8.584694 20.814286s-12.661224 8.584694-20.814286 8.584694h-176.20204c-8.1530617 0-15.1071433-2.877551-20.8142862-8.584694-5.7071428-5.707143-8.5846939-12.661224-8.5846939-20.814286v-133.8114509h-43.8453514v404.7382089h45.7104308v-131.013832c0-8.153062 2.877551-15.107143 8.5846939-20.814286 5.7071428-5.707143 12.6612248-8.584694 20.8142858-8.584694l250.837188 1.865079c8.153061 0 15.107143 2.877551 20.814286 8.584694s8.584694 12.661225 8.584694 20.814286v129.196712zm-115.634921-290.542064v-97.8846935c0-2.6377551-1.975047-4.9397959-6.023893-6.9061224-4.048847-1.9663265-8.690207-2.9255102-14.220339-2.9255102h-120.872874c-5.43138 0-10.171492.9591837-14.220339 2.9255102-3.950094 1.9183673-6.023893 4.2204081-6.023893 6.9061224v97.9326535c0 2.637755 1.975047 4.939796 6.023893 6.906122 3.950094 1.918367 8.690207 2.92551 14.220339 2.92551h120.971627c5.431379 0 10.171492-.959183 14.220338-2.92551 3.950094-1.966326 5.925141-4.268367 5.925141-6.954082zm195.865306 293.79796c0 8.153061-2.877551 15.107142-8.584694 20.814285s-12.613265 8.536735-20.766326 8.536735h-411.2979596c-8.1530612 0-15.1071428-2.877551-20.81428571-8.584694-5.70714285-5.707143-8.53673469-12.613265-8.53673469-20.766326v-411.2979596c0-8.1530612 2.87755102-15.1071428 8.58469388-20.81428571 5.70714282-5.65918367 12.61326532-8.53673469 20.76632652-8.53673469h283.9663266c8.153061 0 17.121429 2.0622449 26.905102 6.13877551 9.783673 4.07653059 17.553061 8.96836739 23.260204 14.67551019l85.703061 85.6551023c5.707143 5.707143 10.59898 13.47653 14.67551 23.260204 4.076531 9.783673 6.138776 18.752041 6.138776 26.953061z"/></svg>